<mxfile host="65bd71144e">
    <diagram id="UDRWju1EcfYe8_-AMmU2" name="Page-1">
        <mxGraphModel dx="894" dy="-2718" grid="1" gridSize="10" guides="1" tooltips="1" connect="1" arrows="1" fold="1" page="1" pageScale="1" pageWidth="850" pageHeight="1100" math="0" shadow="0">
            <root>
                <mxCell id="0"/>
                <mxCell id="1" parent="0"/>
                <mxCell id="2" value="" style="rounded=0;whiteSpace=wrap;html=1;strokeColor=none;movable=0;resizable=0;rotatable=0;deletable=0;editable=0;locked=1;connectable=0;" vertex="1" parent="1">
                    <mxGeometry x="33" y="4042" width="1148" height="826" as="geometry"/>
                </mxCell>
                <mxCell id="3" value="" style="html=1;shadow=0;dashed=0;shape=mxgraph.bootstrap.rect;fillColor=#222222;strokeColor=none;whiteSpace=wrap;rounded=0;fontSize=12;fontColor=#000000;align=center;" vertex="1" parent="1">
                    <mxGeometry x="32" y="3978" width="1150" height="41" as="geometry"/>
                </mxCell>
                <mxCell id="4" value="Atlas" style="html=1;shadow=0;dashed=0;fillColor=none;strokeColor=none;shape=mxgraph.bootstrap.rect;fontColor=#999999;fontSize=14;whiteSpace=wrap;" vertex="1" parent="3">
                    <mxGeometry width="115" height="40" as="geometry"/>
                </mxCell>
                <mxCell id="5" value="Projects" style="html=1;shadow=0;dashed=0;shape=mxgraph.bootstrap.rect;fillColor=none;strokeColor=none;fontColor=#999999;spacingRight=30;whiteSpace=wrap;" vertex="1" parent="3">
                    <mxGeometry x="115" width="129.375" height="40" as="geometry"/>
                </mxCell>
                <mxCell id="6" value="Account" style="html=1;shadow=0;dashed=0;fillColor=none;strokeColor=none;shape=mxgraph.bootstrap.rect;fontColor=#999999;whiteSpace=wrap;" vertex="1" parent="3">
                    <mxGeometry x="948.75" width="100.625" height="40" as="geometry"/>
                </mxCell>
                <mxCell id="7" value="Log Out" style="html=1;shadow=0;dashed=0;fillColor=none;strokeColor=none;shape=mxgraph.bootstrap.rect;fontColor=#999999;whiteSpace=wrap;" vertex="1" parent="3">
                    <mxGeometry x="1049.375" width="100.625" height="40" as="geometry"/>
                </mxCell>
                <mxCell id="8" value="Reports" style="html=1;shadow=0;dashed=0;fillColor=#000000;strokeColor=none;shape=mxgraph.bootstrap.rect;fontColor=#FFFFFF;fontSize=14;whiteSpace=wrap;" vertex="1" parent="3">
                    <mxGeometry x="245" y="1" width="115" height="40" as="geometry"/>
                </mxCell>
                <mxCell id="9" value="" style="strokeWidth=1;html=1;shadow=0;dashed=0;shape=mxgraph.android.rrect;rSize=0;fillColor=#444444;strokeColor=none;" vertex="1" parent="1">
                    <mxGeometry x="32" y="4018" width="1150" height="20" as="geometry"/>
                </mxCell>
                <mxCell id="10" value="Home" style="strokeWidth=1;html=1;shadow=0;dashed=0;shape=mxgraph.android.anchor;fontStyle=1;fontColor=#ffffff;" vertex="1" parent="9">
                    <mxGeometry width="95" height="20" as="geometry"/>
                </mxCell>
                <mxCell id="11" value="" style="strokeWidth=1;html=1;shadow=0;dashed=0;shape=mxgraph.android.rrect;rSize=0;fontStyle=1;fillColor=none;strokeColor=none;fontColor=#ffffff;" vertex="1" parent="9">
                    <mxGeometry x="287.5" width="287.5" height="20" as="geometry"/>
                </mxCell>
                <mxCell id="12" value="" style="strokeWidth=1;html=1;shadow=0;dashed=0;shape=mxgraph.android.rrect;rSize=0;fillColor=none;strokeColor=none;" vertex="1" parent="11">
                    <mxGeometry x="102" y="17.69" width="287.5" height="2" as="geometry"/>
                </mxCell>
                <mxCell id="13" value="" style="strokeWidth=1;html=1;shadow=0;dashed=0;shape=mxgraph.android.rrect;rSize=0;fillColor=#FF0000;strokeColor=none;" vertex="1" parent="11">
                    <mxGeometry x="-42.5" y="-3" width="113.5" height="2" as="geometry"/>
                </mxCell>
                <mxCell id="14" value="" style="strokeWidth=1;html=1;shadow=0;dashed=0;shape=mxgraph.android.anchor;fontStyle=1;fontColor=#ffffff;" vertex="1" parent="9">
                    <mxGeometry x="575" width="287.5" height="20" as="geometry"/>
                </mxCell>
                <mxCell id="15" value="" style="strokeWidth=1;html=1;shadow=0;dashed=0;shape=mxgraph.android.anchor;fontStyle=1;fontColor=#ffffff;" vertex="1" parent="9">
                    <mxGeometry x="862.5" width="287.5" height="20" as="geometry"/>
                </mxCell>
                <mxCell id="16" value="" style="strokeWidth=1;html=1;shadow=0;dashed=0;shape=mxgraph.android.rrect;rSize=0;fillColor=#FF0000;strokeColor=none;" vertex="1" parent="9">
                    <mxGeometry y="18" width="113" height="2" as="geometry"/>
                </mxCell>
                <mxCell id="17" value="" style="strokeWidth=1;html=1;shadow=0;dashed=0;shape=mxgraph.android.anchor;fontStyle=1;fontColor=#ffffff;" vertex="1" parent="9">
                    <mxGeometry x="96.25" width="197.75" height="20" as="geometry"/>
                </mxCell>
                <mxCell id="18" value="&lt;h1 style=&quot;margin-top: 0px;&quot;&gt;Welcome, Lenny&lt;/h1&gt;&lt;p&gt;&lt;br&gt;&lt;/p&gt;" style="text;html=1;whiteSpace=wrap;overflow=hidden;rounded=0;" vertex="1" parent="1">
                    <mxGeometry x="39" y="4042" width="263" height="54" as="geometry"/>
                </mxCell>
                <mxCell id="19" value="Your Reports" style="html=1;shadow=0;dashed=0;shape=mxgraph.bootstrap.rect;strokeColor=none;fillColor=none;fontColor=#4D4D4D;align=left;spacingLeft=5;whiteSpace=wrap;rounded=0;fontSize=20;" vertex="1" parent="1">
                    <mxGeometry x="53" y="4082" width="200" height="20" as="geometry"/>
                </mxCell>
                <mxCell id="20" value="Search" style="html=1;shadow=0;dashed=0;shape=mxgraph.bootstrap.rrect;rSize=5;fontSize=14;fontColor=#6C767D;strokeColor=#CED4DA;fillColor=#ffffff;align=left;spacing=10;" vertex="1" parent="1">
                    <mxGeometry x="399" y="4080" width="180" height="20.42" as="geometry"/>
                </mxCell>
                <mxCell id="21" value="" style="html=1;verticalLabelPosition=bottom;align=center;labelBackgroundColor=#ffffff;verticalAlign=top;strokeWidth=1;strokeColor=#FFFFFF;shadow=0;dashed=0;shape=mxgraph.ios7.icons.add;fillColor=#4D4D4D;" vertex="1" parent="1">
                    <mxGeometry x="257.9999999999998" y="4087" width="15" height="15" as="geometry"/>
                </mxCell>
                <mxCell id="22" value="&lt;font style=&quot;font-size: 15px;&quot; color=&quot;#4d4d4d&quot;&gt;New&lt;/font&gt;" style="text;strokeColor=none;fillColor=none;html=1;fontSize=24;fontStyle=1;verticalAlign=middle;align=center;" vertex="1" parent="1">
                    <mxGeometry x="264.9999999999998" y="4078" width="51" height="25" as="geometry"/>
                </mxCell>
                <mxCell id="23" value="" style="shape=image;verticalLabelPosition=bottom;labelBackgroundColor=default;verticalAlign=top;aspect=fixed;imageAspect=0;image=data:image/png,iVBORw0KGgoAAAANSUhEUgAABw8AAACnCAYAAADnohNKAAAAAXNSR0IArs4c6QAAAARnQU1BAACxjwv8YQUAAAAJcEhZcwAAITcAACE3ATNYn3oAAAASdEVYdFNvZnR3YXJlAEdyZWVuc2hvdF5VCAUAAE8fSURBVHhe7Z3bmeOqEkYnrg7IcZwQ/DZRzGsHMEHsF4cwQfgAAglQVXGR3G6719rf/+1pS+JSFFCAL7/uAAAAAAAAAAAAAAAAAAAODg8BAAAAAAAAAAAAAAAAIMDhIQAAAAAAAAAAAAAAAAAEODwEAAAAAAAAAAAAAAAAgACHhwAAAAAAAAAAAAAAAAAQ4PAQAAAAAAAAAAAAAAAAAAIcHgIAAAAAAAAAAAAAAABAgMNDAAAAAAAAAAAAAAAAAAhweAgAAAAAAAAAAAAAAAAAAQ4PAQAAAAAAAAAAAAAAACDA4SEAAAAAAAAAAAAAAAAABDg8BAAAAAAAAAAAAAAAAIAAh4cAAAAAAAAAAAAAAAAAEODwEAAAAAAAAAAAAAAAAAACHB4CAAAAAAAAAAAAAAAAQIDDQwAAAAAAAAAAAAAAAAAIcHgIAAAAAAAAAAAAAAAAAAEODwEAAAAAAAAAAAAAAAAgwOEhAAAAAAAAAAAAAAAAAAQ4PAQAAAAAAAAAAAAAAACAAIeHAAAAAAAAAAAAAAAAABB4icPD//3vfwghhBBCCCGEEEIIIYQQQgihCY3A4SFCCCGEEEIIIYQQQgghhBBCb6wRODxECCGEEEIIIYQQQgghhBBC6I01AoeHCCGEEEIIIYQQQgghhBBCCL2xRuDwECGEEEIIIYQQQgghhBBCCKE31ggcHiKEEEIIIYQQQgghhBBCCCH0xhqBw0OEEEIIIYQQQgghhBBCCCGE3lgjcHiIEEIIIYQQQgghhBBCCCGE0BtrhFMPD2+f1/vl49f9169+fXxc7tdbTEBBqiRCCCGEEEIIIYQQQgghhBBCqK0Rzjs8/Lzcf/36uF8+GyeBFbf4nHWAKFUy6Pff+794j+ff39/ifX/+izc4/vuzv44QQgihB6qar2v+/ft3/+/vn/tv6dlX1O8/9/9cnUK9Hh13fGVeCCGEEEKoW7///A1xWoGP2aS4t9y4Kq+9qPIqaft1Xvl9Yt2LtcS/+9/f1XWn338zO6c0ZuPkN2yL0/T79/3P3/+8Gxf8+/ff/e8fvY1/mnp9H72g6r0Na4woBjd/q3DPSVJ9rjEO/nYP5v15veeL9hnoK8/RCCcdHt7uV/+Jw8tn/HuMz4v9rFTJoN1m5H/3P8J9uSM+0uERQgghJKhxeLghbwa8morNi39/Dx6KbkG7X5TXcc65eSGEEEIIoeP6fc9DNJE6ris3rrK0Xle9m8KteLa47tinVdo7XdfTteNrDg9lhUOGaBaVb7seabT5yer1ffSC2u1taHsY+3ngGYdw5viaPxRJZfyqfQb6ynM0wkmHh5/3i/8K0tb3jyrcrh/3Xx/Xu/a0VMkgYTNScrTcETk8RAghhL5YxXztFmz//Xf/L8j9O7668QYHiFl9jwfAbqEb03JRzH6he2peCCGEEELoqHaHXf+22LcgP5gqN66K9F5V3ZvCxVphH+/u9rd39snj5WwtocbJjfj6DdvisHaNkPxaWM99ywPERpufrG7fR6+nYryKSOOE0Gee8gk+dRzcv+ni9++e584VfeU5GuH7HB7+urhUZKRKBkkdVpgEckfk8BAhhBD6YhXz9X6e9l/pVMzn3/Ydq8/Q1y50EUIIIYTQEVWfNqk3lYsN5Sy2KzeuymdeVP2bwsrhX5DwKc56rZCvNbrWERwejqlqA8HG9YH599t75fAQnSTxLKJj3HI85fBQVV7G572Bm77yHI3whoeHjmpyL+f97Pkg6fu6/aci/t7/1B0nS2hxaPds/s6xf/9l73ByE1OeqP9YvNIR99+Dr+SPEEIIvaIah4dB+WTtkALr4fnSzcV/63fDuuf/U36PQ/pdmq54IMz5/q9YtzLw0J/zAXsWR4Sv0FnzkhccidU+Wl5Rv+t4xLHkI9igUT4rlkEIIYQQQl5lDCdthvpPdyStr+9iut447MCeVh3DRo3vUe33xvy9eZUkO+RS783WEf7TmwvlRndxcKXE3qtN82pV6PH1D4+Jc3tUtt9U2VZph9P9run7nW0e9QzfRy+mnrOIos9siHscI+v1oEGfyy/EMirFC3TvM9BXXlojvM/hoXO6zQfLyaz09+z56tqeciIrO47LL/6zxOXtJ6/4V0HHu3NKnnfyjxBCCJ2mnsPDamFXB47D86UW1CeqALiVfhE/qPFArFsZeHQ8l5PsM7u5EV93suu0t3Gelg/87fIhhBBCCCFJeXgW4kgXczU/DTcUJ24q86qp7lfz2O4b36PSYtZ/xaFOc1O4KJsUP7sy5geJWWxePrq9vk9zJr7ub4t3VW4OaV8zyR+C/PkTpR6Mn+V3vb7ff3j4NN9Hr6XiLOLv/e/qh8lHMr9wa+rcR4rxyWl4vT7jc7tx0O478jg4ss9AX3kFjfBGh4duAlMcu3zZeD687k/C42uO4v66dzkP/++vmxSlw8J//93/hmvlFTV/96+/f+K7z/J8jIkZIYQQegkV852+0C6m2TxAnZgvy0txw2Z9l6snK0eRvr9/WfQW7zDO76/jAcfymx+xDPn1vB71cz5WCAvsMv/0zO/dNV/3pWy/U0Cu5aXUqYxLqsB+Vz45zqkXPQghhBBCKFMVhyWWT2Uom6NqHFamdOqelqOIYSdi7jLNWObwiZT4UqS5KSzWJdukDq/lm/Ip7s03pY3Ydja+9vS0xduq2vTP1xu9eoTfDfh+V5s/0/fRa6n2vfxv3z9Wv/DjUdl/1PHbMb5e7/S5slOE15aD/vy5lNboPgN95VU1wnsdHlaTWuqUpb+XaQQH98pey51a7XBVRyhO3V2nyq+Vj23paa+X16qBAiGEEHo1FQGmfnhYzKXZPDs+XxpBuqA8/SIw1jYjygf2X82RX8/TKyuixh7ltT8uh4RgOyWvOi7Jnymz6otz1GcQQgghhNBeLv6tN0Y3/rnwrIqnJuOw6T0tIYa18tmulXtU+jNlPN6OH/P7U8ybvRbj2TW/1UZZrGzF10U8PBBf//iYeLQdBeVGO8nvvIZ8v9HmM2XQnznBZuj7ancWUfrCShhzSl/I9yVm1utTPpc/VOSTP7PvX9pzehnya/SV764R3uzwUH6t9PcqjVxp4ske6OtwZaevnV2+ZndSKz2EEELopXTo8HBuvsynbI9/d2t4V1z27KIyYG0dNAYZ8YB53XwuX9Dm9Zw5PGzUKX8m3xAxykdcghBCCCE0ruV3oWIQVfGvM07sjsMO7GnNxdx2zFmGnO34Mc9jSWuLg9Pz2z0xLtbqWl0r6zsTXy/6eTFx2cZTdT7d7wS1fN9s8+f7Pnohtc4iAsmPND+x/afoM+K+yIDPqf3P9nv5OfsZ+srraIT3Ozx0Kv17/3eehhXIefo6nD2h9XQeCzoPQgihl1bn4WE+zcoBqk05X7oFovKc/8qo7RCxETRLMuIB87r5XL6gzcsxs7nRqJMSP83GOQghhBBCqKXlYKMOT9c9qsk47Kw9rbmYW4tfF+XZdcWP2QPh/jVmzdLO4lhvu9w29X6fXt+Z+HrRz4uJK7/Y+U2HTve7RUO+b7b5N/B99DrqOIvYXi99axuj8td71+uTPqf2v0YZxOfoK++iEd7y8LB43bnof4W/Z8+XPXv5/vk/5W8c9XW4RjAnXpvpcAghhNALqpqX5cPDcl48a75cFpVSAqkcjaBZkhEPmNfN57Sg2lroOolpNuqkxU+TcQ5CCCGEEOpVHttlcdVMHJY/46K7I3taczH32ZvCWXqufFu98xh4u8enueXRGyd7zcTXi35iTJybw1V6WztU+v3X779GPdTvqjR7fN9s8+/g++hl1HEWIR8Saq/3rtcnfU7tf40yiM/RV95FI7zn4aFTPqHntDtwZ2A2EEDI1xqdFCGEEHoX5fP1brEm3aPN18fmy/rd3kseejygyogHzOvmc1pQbS10ncQ0G3XKn+HwECGEEELoPP12sdu/f/d/UVLsWoZiMa4ajsPO3dOai7ntmFOsp6k8veyDAMV+X3aPP6Ra/13Xx0mt70x8vehHxsS5PVTfKH3hWX6nt4/V5ueWwWvc99HLyDiL2EvzE9t/ij6z5jHpc2r/a/i9+FzjGVGT5UYP1Qjf5/Dw43rXnpYqGWR22Hxi2NicNL9eOvxMoGUFENo1OghCCKEfodbhod9kiVcD1Zw+NV+m372oAloprfy1en4vp/74evlicb95vcy8jFvUa3ObG/nLVp0Keyppef3IjRKEEEIIoWFVce0uViyvr3HVcBx27p6WlxojGtKfKTeMe9PLy56on+25J0it71x87fUzY+KyLV3Fq/3XfZsUBwSn+92E7zfafLwM5/s+ehGdcnhY+k/dLzTfmvK5/KEin/yZ3sND+sq7aISTDg9v9+vHr/uvi/bZQZvPi/2sVMmgRoeVAoqto9YdeHFQ//Vm+VN9Hc4OINRrxWbqv1CG5Qd+yzIUky5CCCH0aqrmu3/p62z+8+/Iji+vCIHr8HxZBcJxjt/P/VL67om/f3Zfe+Pu3haZRjxgXs9f9/z7z5XN51Xnn8cRVUDt0vNlWw9FtbyUOv3JE/O2yW09GecghBBCCKFNdcjnA9419o0vLWSx2HAcdu6eVtDMHlVRWfdMiDn3v0XXHT9WMaxntye2N/B+/VDfV9R3Mr52+rEx8c7mrv5uLeP9um4vZxj9TZKn+N2E77fa/Dv4PnoN5b5y4PCwHuuG1+u9Pqf2v7xswhiqPUdfeQuNcNLhoePzcv/16+N++Rz79OEtPmd9aFGqZFCzw5ad1JM7bz7p5/ivlkj0dTg7gOi9JtIciBBCCKFvriow1lEW/k6j86X/ilKT+v5G+mrwKy2Atev56/6rrOI/S/bvhJXKtpanMzaR2AXnnWkR1COEEEIIWdrvRUn0xpdaHKbFejN7Wkmt+LGOofW6+oOl+E9Hf/xYfjLTPblfH+zWFsKnB70G4+TR+PqnxcT1T0CI/Bv7JGfSqN8N+77yTM8e8crDfR+9hJpnEblKHynGfKeWz+19Z8Ln1P6XpzVweOhEX3l9jXDe4aHj9nm9X/wnEH/16+PjYh4ceqRKBvV02NzZHfuOmk9+y4l5/kxfhys7Tu3s1rVwPX4nfoH725/E24MQQggh9AJqHB76RV7PnDc6X6b7iyes+8O738r0/Ttq/wwE0ub1+vVQvvi3w//Qv2yD3/c/RbySxTONskg2W+okBOaTcQ5CCCGEENpLii1dJBVivpH40t5vOmdPK9f4HtXv8hs7Yvw8Gz/mxXQPCnlWG9FaXcz6zsXXPz4mdmuIYLfccA6/vvDf9iL6x4P8bsj3g4w2j3q276MX0ImHh15D6/WgQZ9T+19etrHDQy/6ymtrhFMPDx+FVEmEEEIIoZdS58IZIYQQQgghhBBCCKGzNQKHhwghhBBCXyEODxFCCCGEEEIIIYTQkzQCh4cIIYQQQl8hDg8RQgghhBBCCCGE0JM0AoeHCCGEEEJfIQ4PEUIIIYQQQgghhNCTNAKHhwghhBBCCCGEEEIIIYQQQgi9sUbg8BAhhBBCCCGEEEIIIYQQQgihN9YIHB4ihBBCCCGEEEIIIYQQQggh9MYagcNDhBBCCCGEEEIIIYQQQgghhN5YI7zE4SEAAAAAAAAAAAAAAAAAPB4ODwEAAAAAAAAAAAAAAAAgwOEhAAAAAAAAAAAAAAAAAAQ4PAQAAAAAAAAAAAAAAACAAIeHAAAAAAAAAAAAAAAAABDg8BAAAAAAAAAAAAAAAAAAAhweAgAAAAAAAAAAAAAAAEDg1MPD2+f1fvn4df/1q18fH5f79RYTgG/Ozf0HAAAAXwPz7veDNgEAAAAAAACA9+e8w8PPy/3Xr4/75XNsS+UWn5s7QPy8X9IhpJnA7X4Nh5oX98R3IZWpp+5bPSWFA9hBu+vcXFN+bOlfosVu1/tHeG22rQAA4OeS5jHmkG5m5t30zMf1cQdcX5GHCLHQ+5Ji4g59ud8BAAAAwLlssZ+9lyuwxuO/7ilE7+eV95AXlg/tZOsUX5fRddCkDWfyPqW8kdu1TGcnbZ1w+7xf87Wd08flej9t6eg4Vs8D/WEF3w4cGh88jbbI0m9rbM/gzP71eRvIuIOTDg+jceda5v55mX0230iyGuU7do5Uph5nyurpnOIj11p/5yCT9s9ZB2OX9uVyuV9S4dxgG8rgnXB5BUycvUIbYS8AgG0eq+c8xkoVdd41bJaC2cMHLF+RxyjJh3zevmyZ0utOxELfCcOPClxM7Bb0cptWr7uF/tf6HQAAAACcho+n4+Z8iN3bG6IZ28a+13jYn60nXm4P2ZWqODyLsfH6d68t52w4k/c55d0IZwf+2bQuqCWtE4rDnnhf9vdgEUQO1fNQf8jBt7e6LRoeH3rawvnTsr61taTR71+H+5e73+9bfJziS3tOOjxcnHS2YKHCU5tQeedwUj3jO3aOVKYeZ0r1lO9dPr3Zm5bNMhgfTwdSm7HBCACgz2OMleMYNjvz8PDheYyi+dACsdB3ZL5/p8XQmYsek9vt/nnm248BAAAAYOO2//TXaKxXbrAfPTx0eqU95PUQzK1RqpjVf/povdYw55QNZ/I+qbw5yxptpE2yw6Sqoqsdjq5pZ+t5Qn8owbenx4ez2yLVp9e3jvavOhPr2iTf5/BwynG3jaR0uio7x3sfHm5pHd1kGSkT2KQ2+04+BwDwLLR5jLFyHMNmo4GqylfkMYrmQwlioe/HfP9Oi79jbdnH+hW1X+7TAAAAAD+BLU4PMfan/4mA5e/uWC9bg1zjs92HAyvbeuLV9pBbsXGXPSdtOJP3XHm3n47YPzfRJushivRMa23Zx2w9D/eHHfj23Phwfluk58v8dd+eqn9647RSSbkM87zJ4aF71hwU7M7hT3Lzj6Z6h7lcP91TMuP3X2LZFvmv1LqtZeoZqNqDmuXcPeVNz++0elpm6/hKIOugPr3bta6rvhHTbcciD9fhdnlszwRbZ2men7//065j25YAAD+N/TzWO1Y+da4Q3oUWvoJRvHlDD9aSHVw6u/m6jgv2827TZgfm5MQj8xiNn0qIhbY83j8Wai2iEnVdfflzW5Qsi7ai3OFrZZxPfbpn7KwAAAAAYAofu/rfmNuCLStu31Ouk9KznWFlRhbLp9hW3Ce295BdAOri59YasbXnO7In3K5zip31WHvehjN5T5V3bROnuObYiOXfva7TskkqY58Pysy1y9H+IIFvz/i2f/bUtqjWzCuGb0/V362Bd69ljNmgzfscHvq/1AbWO8faCM7Jwu/aeIV7nYRBafT+9d3MTh/x/sWR0nM9nSnVs9Ux947RW16/CbSWzSmVdf2dn8rWK2vH2NIt6ukleOuQHdU8tg2gj+vnams/sH1N/nIeiy1T2fwmVkx/sn8AALw++3msZ6x86lyRBXg+nasLKvPyWkN6KvcuHsnS3M9N0UZrvfbzbtNmkg1CPTcbSHNizqPyGGpLEWIhOY/N7u8UC6l9KGMtvyvT1dc9Pwjd1de1Xbjm6urv9V9T6sqYytdZLAAAAAA4gZEN+jounN8YL2P5mT1k91B4JjyX4tv1sMXFmdkDZjy7xtY966A2rdj5PBvuaeUtoT2zrmV2acW2G7BXy8dSGaR10ln02makP8jg2+n6Ud8+0hZW3rpv28j1T+3t1rH1O9tPtr/nrQ4PC+MVRVE6h2FQ0Vlm7/f5VuVJ9/dtWGj18vjNj8WRduUaLa+7a7GTlE9t68haRykfpdzTdnRyPbB4psi/tvMD8u+to2YvAIAfycRY+eS5Qg1SY1C9ez1HKfuS5sd9+aRUVeddupptOmwm5L1dq9tA4uQ8FHt45HhEQm6nBWKhLX9XtuLiA/LvraNmrw7U/reipS23X6s/P3LTAAAAAABKutcAQqyWnh0P3+r4UYthtQMW7X7HGitnzxjxdjvWHcFavzhOtWFNI2+RmWei7V2B62/3+/XhD7b2CTXr+PB1QH89u/uDCr6dOOrb021h2GQeo/4uv+2Nv8ubgddv5NntCRzjzQ4PHclxisaSO0dyaNGhhEafvV+2S/8gstXTp+83HTeF13wewldSjZbXLpNga4/ZOeT0hstl5qGUK5DyL/M6N3/NZla5AAB+GmlM7B8rv8tcMRfbpDTL/EIg6ssXYpXW3KiV2ajL1HwlcW4ew20pksrk7yUWKjHaa81f9u9z8tdsZpXLJpVvpv9JC8blNaNNxXoBAAAAwCPo26CXY0kp1utDSG9iD1k7bNqXS19X6LHpOHa5zrZhScsmEjPPuIeWtUiUXwMWhyW79OQ1UIHY9ucxUs++/mCBbyeO+vZsWxzNV8Kuv2uD+GnGUh93/Wc85ni/w8PVgSWnlhzKDTjhq45q7TdJ5u7XHEfvaHtSPTX5Mu0TGS2vXSa5U7rGMzaTZBsMl2t6w+wr8pfzaJULAOBnkcbEen7Rx8pnzxXuxfCaL0MIvqQJwGCf5lKGECvFsm5xkxSnaGU26mLaQIqPNM7NY7gtRVKZNPn09ymM500s9B1iobRQmllbWPVV21SpFwAAAACcT4rXrFhPji/119tIsam0fpHWZh35pvVjdoMc054Xf66HC/6TRvG1nPNtuNHKW2LmmYVbXKf4X3+v8L/T59Ms6tOx9n3g4eFoPVN7zKx9FvDtxFHfnmqLxlp5Brv+m8/7ny7Z8nT9Y/1pjj7f6+ENDw8dqdHW16XOsXUiW3UaLdX3a4eDres5qZ7CvdkgWdp/tLweq0wNWysdZN9pJ8p16obZ2flLeXjscgEA/Cy0eUwbK589VyzsvhLFlb/7IDEG2OvcHMu35BHrt5Y1lq8ogFZmoy6mDTab1vXcc2YeE20pkspELLTPw2gvxyvGQvJitCb+bmH26dNceVnU9ISFMAAAAAA8lhQ7qrGeEaPZcWel4qZGLL++nmLl/D5rjRCRyizF0PU6savse1qHK+M27KeZt8DMM90IdW3W0bDPEWbqafcHfHvHA33bbguZo3nWtOrfLOPJvv2eh4eO1dDBUJOdo+Ds+0fSS/VU7k1OUWzojJbXYz3TGIi6N5MmymXmofuA5/H5S3l47HIBAPwstHlMGyufPVeU3G6f4SshQvpBPeWKecby1LHOkmf8exdke7QyG3UxbZBs2hPUnpnHRFuKpDIp6RAL7csVecVYKMXx+toipe3uuVyXdyHflnciy2VJdfZpxk9Yru/KHPEPAAAAADhKitfkWC/GeaNxZ/azBquKm/TY9JQ9ZHHDfv/cUv48nZ6y59xcGrG8io3Wug7ZsIeevGtmnhlEWKvYPuYfydv8DObr2ewPTf/AtxPzvr3Q8psd4j7ELAP1N9fYPff087aHh9s177RS53B3DDrUufd3dM6VvC7xpQL5+niHscqk2HpiM2m4XKdumJ2dv5aeXS4AgJ+FNo/pY+Wz5wqNNfhWg7mNJd0lz/Dv/JkYZPo8lzR7bWPUxbRBmuN76nluHsNtKZLKRCy0z8NoL8fj89fSs8tlkfqZtrZI+UnX5bKkhZhbrIYyxef9waOcBQAAAAA8CCuWW9dbPm4TDh5SHJeuSz9dIGPFpvlaIq0Hyvua8bN4wLLVZ3k55qPE1G229ZbPR0vjMTbsy7tk5pkaa30WEdYqqw2q9khYPjjOsXoeLwu+nbRc2673jw8LY22xlVm1XTe9PmS1daLnnn6+z+HhlHM1jLGe/l7uF6FzJIfTyh3ewZxdOvf+5BTG4LeS6qnfKzn3aHntMim2nthMGi7XyRtm5+Yv59EqFwDAz0Kbx/Sx8tlzhU+8SH+lf3xPdbh8Ls8UdYnl9Z+CCnPvrtxaPkb+pg1GAttz8xiPRyRSmYiF9k8Y7eV4xVjILp8dQ0tlWV4bLwcAAAAAnE+K16RYL8WBvdLi2T2N2LRzD7l1GLW7nOJofyHm0V/mHFf+uNbSP7m1cL4N+/PemHlGxvIXj9g2ye5ieydf0NeW/RyvZ6t+bVJ98O1ao+UZaovVrvIauZ8RH+rY12ms3Uc56fAwFrxZQZnQMFPPNjqHIzX6ouq+dSDZDxb2wDN6v8u3uD/7GGrXQJXqqd97SnlXB5TyUWzdcEhxgJm140kbZufmr+Rh2hIA4KehzWPGWPnUuaKjXD2BWLw3vQNOnCf8O+T8PbuMtDLPli09V5dD4uQ80jO9bSmi+dCG6RfdeRt119rEtInkX47Rcpl5jPq349T8lTxMW9qkMmiLNjk/99xnqld5bbn/MlwOAAAAADifFMvNHDRocWAbO2b2pLQX1fcZ65E1trbi8cv9Ev4/Hhvrv/E+x5ANZ/KeKu+2V757Jh3SmLbX1iJOVUXX9Y6ytunmpHY50h8WUjnw7SHfFuhvC2XvQ8Tw7Yn6r/7r26R+xKcXy3WGPT0nHR46Qkf+cAYbK9gtPjdXn3bnyAcR6b7N4B/3j4t3dq/ttV2bDt6/dc7t/lCe9bS/p+5GJ04op91j5f2iDTPHULnMPGwfeHz+HXn4tvbpq40HAPDu6POYNVY+da7IFij+qw2vn5/36/obaT0BoidbsAh5bzGClJ5eZtVmpg1Ggtvz8xhqSxHdh1aIhXa+4nnFWCg9py54sv55Cb9heHVxtX/G5yOVJX/jXqnwdTb+NxPjnQAAAABwNi5e9W+ajNpise213jhRizvb2DFzIMW82n1rDOpiyBQ/r/XxMWW8ryZ7TounVYoyLbGrLqNuGd02nMl7trz5c4KNtrWLv56ej387ieuGoizxmezvTpeTOdQu5/WHBXw7MT4+TLZFqndPnTXfnq5/vs/k03TX3Vo37w/DbWFw3uGhw7/bN51u9spXfr6zdnQOxzbAyPct5c4dxHcU/TdQhu/PNhuD8zkP9rcuDt0zWKV6Wvfq9/SX9+s2zDzd5TLzsH3g8flbeVQbVf0jFwDAm2HNY/ZY+dS5Irxrq8rbxy3ahC+Q0hbLtQbaUrmsMis2M20wdnj4iDxG46cSy4cS+j3EQo/M38pjLhZqHh46/BsQQ5mCtvg6PVtkFe8Nh4ThK1k3reXrLBsAAAAAjJLiVV29n5KxYlsbO2ZOtPaQXRAqrhHtNc1W/+FPA6U4vEt23RLdNpzJ+0B5U1yu2eg2sz53z1zz9Yh/pnsNanCoXc7rDwv4dmJ8fJhpi9G9FV8uwbcP1l9cyw/uV/Vw6uEhAAAAAADAtyEtytSVXd9iGwAAAAAAAOAnweEhAAAAAAC8J+nwUPnUZPM6AAAAAAAAwA+Ew0MAAAAAAHhTtq+V8b+9eA2/kbjIf4XR8lUxxu94AAAAAAAAAPxAODwEAAAAAIA35nb/9L9Bng4RV/nfSjzhN08AAAAAAAAA3gwODwEAAAAAAAAAAAAAAAAgwOEhAAAAAAAAAAAAAAAAAAQ4PAQAAAAAAAAAAAAAAACAAIeHAAAAAAAAAAAAAAAAABDg8BAAAAAAAAAAAAAAAAAAAhweAgAAAAAAAAAAAAAAAECAw0MAAAAAAAAAAAAAAAAACHB4CAAAAAAAAAAAAAAAAAABDg8BAAAAAAAAAAAAAAAAIMDhIQAAAAAAAAAAAAAAAAAEODwEAAAAAAAAAAAAAAAAgMCph4e3z+v98vHr/utXvz4+LvfrLSYAL8TN/QfwleBzAPCTYQycA7ttYAsAAAAAAAAA6OO8w8PPy/3Xr4/75XNsW+IWnzt2gPh5v4TDyIv71/fndv0IB6eXb1HYm2u6pTxBRaGUa7fr/SO8drTd4GmEfle39zcGnwN4cdI83TfupHnyy+f1NNZ8XL/XIcuzxsChuSJrY0tfaVvmjo0vtsXhPvxqcQoAAAAAdHK7X+MHTz6agemyL7nEsVEf43vPC9t6xc43le/77TEvH9rJ9ml9XfyHckbssa4Lxvalp/K+fd6v+b6yf+ZyvU81n6c3vayObR1fHz2zXRbw7cAhG3r6x6Z9ed04dcC3v0X/Ujjp8DAad3KB/3mZf3aBw8NZ1s0d56CXy+V+yTqHes05Z7C3c+JXsDcIvNzhIT73eJyNXV/3kxM2hvPZgtl2cJ7f+8X+mILNb3d4+KQxcPbwMIwlilww+2W2Ze7Y+FJb5H3YinfdfcEvhDI9NU4xygUAAAAA8/iYNG7Oe5kb9NUB0LKe2P4ejxPzGNVak37PA5btzXlL+YM91r/bhx0L2+GIV68Jp/Iu2q9+ZuLAbiQ9d+8Sz9uaLkvGM9tlA98+bMPuscm/oWG7b937SH9P+FPxwa2UXl4WqTJn9y+Dkw4PFyfta8w9wUkObdSlTvIai/zUKcYHg/NZHF52KusavDi8o1/n5iaCs9+m8RK81jgKr0YezNpjTxk4frE/pgDsux0ePoupw8Mnxw0/dgz/RkS/+bhclv6k+o8x7zz78FArFwAAAACMc9t/QibEi+rCYTsI8BvnxV3ZJv9YqNi7Jv2GByzrQYFba1VrHf+JpfVaYxlUrrU77TeVd3aQU2WylmFozX12eo4z1v7PbJcCfHvahoNj0+ZvzobVLVsZBuyb1r3+mTpLP9bF8pT1eUB/MPg+h4eHHDcZ8xs5v0FqyPHB4GySs0md0LoGLw+HhyLruz1+5MHBa42j8Gok/0rvoNLmlnjf+q6pL/bHMxYQ78SLHR7+7DH8+7C9+ay1ODXmHQ4PAQAAAN6EbKPbx4if2yd31H3kFAtqcX3ruki9JtX2ZVsx7NeT9pE1ezXt6cnWutd4f0+oPZX3eiAk2VBbNy5fUSvmNZWeTSr3keXGM9ulBN+es+Ho2NT2Nfl53bdbfija5wH9weJHHB4u3xu7NMaij/vlWr1zxZOMH1pMaFj1+ufqbHbnjA0XJjmhEYXT7vCVSSNmDe/AaaeRnHMnVwHrWny6w955GdzgZXznbnf7aPTarW4/53dLZ4t5Gob2v81ZfD1CqJNexi+1wUy9Gpty3fVNeceA7XaNnzKIEr+ebuYZzeem0vIs/be4N7SXnyxcPeWHFmp71+NEZHrcGfBLl0nlZ74eyphhlLvd5wGOkvXhqt/mbIFTzzyz3LvIHjO7x+TpMcXn8cBxUxsDI+NzTmdZG3NFSSrjQJA6be/eMVyx26F2nvG9jvtTmYQxeuVQnHi+LWRiPmt6S3lrF2rOO0+KU3rnw9G4EAAAAODn4vc5/Npki5RSzKXtI2/rwvjCKWTxcIoRxfVV44Clax+m2gfe0bpe0rJHirn1dVuZ34h9Z/JulUds/7VNnGLsnphKz6JaI8zyzHYpwbfnbDg4Npm2jUi+Zfh2i1T/vDyn94cGb394uBrUOVH43T6v4FROdYOtDZzf4zd54l3GdakxV2rH+XR/+84XLkYyR/Jf83R1zntZN8b6OpzzjqVMMY2lrln9swz95om/nueZftfQurbQY++8DMvfUj2G2kdixG5Z+y3vREh5ZmUWDL2W0T93/bx/5huBQkd9mg1G6mVsyg3VN8s73ZPqnNrllGc0n5tNK9zr7OTr5yaJz3UzsaOvCXkW44RjqE1n2s8z0N8DRrmXPr/1mzW9pjEAein7sBjQJR8NL540rzuGxmRpTPH/XvuH065zZXn4fvyIcbPLHh31cwyV1Zgr9qQydoyjiVlbhHv9+NUawxW7TeWb23rU9zruF8okxqBOvqzjceK5tlCJPrPOWyn9Ko3mvPOkOKVnPhzKHwAAAAB22JvbE+uKLsp4WC+DccAysA+TYkaxjmuM2rHn14GZl6O+Lq7HJ5Hybh1erPF0VQDtzfmz6WmcWX+Lr2sXfPu4DRdMX+uqm7zu1nzbJOW3S8sooyPZ5Ky16XsfHhqNKhp6bZTlGfUTCdJ1y4HqjRQBtTN0PLuQbCBMroqzuQvGuwGsaw17C8+IjmvYrNUREkN2y9vPlaN4QrWRUlfNPk+wwVS90qSwG0hm6+u0q4PikzPPaOWaSKvlM3ubVFR5quNEb5vm6Q375d7P1Gda5V7TrPMCOIPKv4R+svSP5NONPj/cv/Z9xRyTpTzUtLS+c+K42bJHb/1Gy9o7Lga0shtM2GJsDG/ZrT/f9ZlR3xu9Pz5Tj9Gteu9e33GiLQzKfuxJvlX7nEcpk+eZcYpVrtH8AQAAAGCHGA8n1vhtibfkb1mZ+caHOo7TYkEtftXud1RlDqTXhPWAGttP0YhDhbg62b9rmWci591Mf2ideXJ6Rrucy1e2C76dOOrb6Xm5/IadVnru0VjeGB3ezBrq7crhbFzvDZzdv1q89eFhcljRVpKjtwaQxvWl8fbOob2ec7Rzpec1x5Ady+qE1jXb3r11GG4fgaE8u9qvf4CR7n+GDabqNTGQiOmYeSs+NPOM4nMzaS31MPz6oL2H27SRnuVnQ/29kY9qY4BT2PtX4afJP1entecZ0fUFHx8dk+1+Ys2LMqeNmw17zMYOOWJZh+aKVEYnt7j3XyO616Ws14QtlnL2juGy3WbynfW93vvtMm3pzbf1ebbQkdpgK/veFkqZPM+MU6xyGYj5AwAAAMCOFDeJse0av/lPPi33hXvjmiL9PRqriTFeijmLWDHFiGX6Kabt34fRY2l9TTOOXS45rj0rbpXzTvU20hftrnFuel8Vs39tu+DbiaPtm57X1t3puuRr/o0OYewKmrHB5utJ+5+jObt/tXnrw8PksOFrrT5rCZsJjY2b5vXYOKUdYtlaDZYa1pU3vIPGvHlPs3Ok9Isb9M5uXzungw63j8SI3RrtlwalXj+W6vsUG8zUS/QHG7FujbxPe0bxuZm0ks1Vvz5o75T+WeOO1H6yjTKk9m3ks9b/0FgMoCH51/basijM+6Xsj6P9q9lXasx+0hGkVYj5T4xbtj0G6mcgpjU0V6QyWqrG3glbLK/1juGy3Y7kO+Z7580FLsFQJp/mTJx4pi1UYhl3cVTKY5eIUibPM+MUq1wGQ7YCAAAA+MGkuEncf0vxW5CL+/df97Q+PxIryjGetMZLr5WxYDPWE+JXeZ8xlkOL+wdI6fuDVqlYWpnPiFv1vDvWzclWXTY4Mb3Wmuskvr5d8O3EUd9Oz4tjUyDZOt6X3iidXlvf9CDtWYxwW35nP6Sbp3V2/2rzxoeHmzFtZc+0BpHmICN0kthgPbbZnCKpd4Mo1dVwTKGj289Z1yx793aOifZR6LZbq/1EG3ni7ykV73DatN3+JBvM1Eutq6e3vo5G3uKgPfOM6HOOibTkCc5h2iTDzHOiTYfbr8PPpLq08tFsDHAKsn+tAaGTGHQW94/2r9Ex2dHZv/fDxIPHTdMeA/ULDJS1d1wMpDKeZW/ZFmNjuDKuDec763stZeVqjtHuFlfHcM+qkYPEs2yhk+4N5fILqEzp9bLZlDJ5TN97Rn/LGcgfAAAAAHakGEzcK03xmxqLOXb3pPitUhGYNeLh9fUUy+f3day9evdh4n1b3XvKvqd1uGLF0yMxvkQr72b6Zqy/56z0jta7h/PbBd/eMWzDftLz4ti04taD6+/kx/tdWZc3OqQ6j+7TKKS6ZnY+qz/08gMOD8/bxGpedywNuOVZ/93D7fZ5vxZO2Hp+sqObz1nXzrD3RPs0aNqt1X6ijbaBLnxU2A0Et5uTv7LrrE+ywUy91IFkpL6ORt6nPSP6nGMqrWR3P2bFT4H4TcCQfkdbmHlOtOlw+3XkIbVvKx/NxgCnoPnXyOtfMMZ29W9tfHrguHmKPTyDZVXnComU9nnj3/ExXLKbYzjfZ/teyXic6DnLFhqbb1kq1wpKmTzPjFOsco3mDwAAAAA7Utwk7yNbsViijrfdM9kb11YVgZme7npYEe5Paef3dcT3Yvy6f26pe55OT9lzloOLkJe6doh1PRzj1/TkvaWvnROU9m5zSnqpfYxyH+NR7YJvlzzKtxdavtZGb4s59umd0h8G+AFfWzrgMK2Nm56NndihFlvEjmTd32Bt8EYazbp2dvQN69o59h5unwFEuzXaT+pcVoeUyv8UG0zUy2W8f80xWt9W3qc9o/jcXFppMnITVkhzUdgElBKpmcrTYKL9mnlI7dvIR7UxwCmM+teT5hmzn6R5sUwv5fHQcfNke3SXVZkrZFIZjUVHzZQtRsZwxe8m8p21de/97TFapjdOPNMWIkX8KyDmo5TJ88w4xSjXcP4AAAAAsMOKqVwAJ667SibWHlbsWaSX8i/va8Z6Svya4vXl5ZjPYMy/sdnG56Olsa4R/JpJOLxZrm3XL11G7MvbI+5DZtjtv+d4ej0+dYRntosH305arm3X+224MOqbO6b2UKR2S+zvObt/tfg+h4fTzuVIGwOVsZMxtXKFdwrnl1obN63rgayzxPu77FKXZaXHkba6thynvJw6pjTZWtfkMpn2TrbLCjDcPhIjdmu0395Glg1kmz7HBqP1coiD2Xh9p/KeeUbxuZm0ltfs/mTSyHO4TSfqkPIY6u+NfFQbA5zCqH9NzDOOun+Njsl2P9mC2e2RLxo3Z+yxq99EWacCXzl9kQlbLK8d86OZfE/1PcfoXOBvLu5f6e1b59lCon2f5H9G2Z8Zp6jlmsgfAAAAAHakuEmNlWMsra5DUozXjIFzGnFzij8/0m+Wlfe1yqTGgqms/kLMQ6u3jSt/KJd7vhFwrmXtVLs8/XkHzPZJ7TCxbpxNb21bZa11iGe2SyLZAN+uNVoee2xq2HldL/auCe31ZSDZOPfds/tXg5MOD2Nl+yyzIzTM5LM+79SwuzRWY+4NJnYMqUFyWtcjS3k+7pf4zvh2YxnO0pmn6RyqU1lOal1TOothb7HzGfe3Bq6FQbut+QmDgGKjVO6da31uaRXXvtwGjol6ucIsaVd+NV1fxT/F9GaeafncQFrLa5e9z/TSyHOzeWebrvcPtN9qD8P3B23lbjD6PMBRlD6sMj7P2P1rf38aH8QxWewnqY9IY0o9Zrm7zxw3J+wh1W+4rEOLLGNc0piwxfJa7xjesNtIGxi2HvU9837T9wTbNuqycaItata62v07pbX5pFGvZ8YpRrmG8wcAAACAHfu4sCbFrv6e+lNI27pMf15CiYczUrkW1fcZ651GPLyke7lfwv+F51vccnuMPrxHi2lFpvLe2qje01zXQrv4fPvKyn0+M+kltmdPj9Of2S4F+HZi3oYL6XmtLKsdXQblHdZXruq+vfqvt2+dpf+5EnGsO9Ifxjnp8NARFvkfrnHGinaLzw37h3uu/jiqlMbWCB/3j4t3Zq/ttdL29gZD83oibXj03JtYn/HlvN6vn85B1t/w6XT6LN+1rquNfNvE+1aSs0m2s64Zg5JQho/k0IIthtpHYsRua/u5e+MzpY2EwSFL/xJ+W+ka7/flFPLwfLUNZuq1tmEsY7o+Wt9GnxAH7ZlnNJ+bSisb0CuFj7T73y+Kd4o08vTMjTsj7ecQ/Gx7xtcj3pcYKbd/N5JPr+l8AL0Y84aIfv/wmDkyJpv9RFl0fMW4adlvpH6jZV3zjWmbY8J2bxjPNLm5ek1lyhYjY7hit6l8/WNjvjc3F8hlyttuLk481xY5az1bhUh1yPLS5x3F976kvxnlGu5DAAAAABBiu7QeCLHTEjeF2Da+tltrpDguavesFjerKPFwTpFn39priQX9a34tEu+ryZ4bLrdiB1lG3TJ6YvzAkbyLZ+M92d91cxf3SzYaTS8hrEFO4ZntsgPfTozbcHRs8vfvy7w958pZG8H07ewgMFxP+eavndgfJjjv8NDh33WbG7BHvvGnKpQ7dSONpVx5Q/qOIPw2TjK85uyt6ytbw4ub/hr+tL0up6/byIGskoacxAMODx17ezsHdr1Wq0V3+2j02q1oP1e/fPPRPa8dfPsD7qJDxrqkjSVpQPpSG0zWyz+39tesEkP1bfQJcdCeeUbzuZm0Yv3CBnP4GrhN64Z0mXlJI8/E3Lgz0H6ekf7eVe5qU96yA8AQ9ryxZ3SescfM7jHZ7CdpXqzHJ5/+g8fNYXvoc87wnObKK80Ve1IZG8rrPWOLoTFcsdtUGywc972euUDhUJx4vi0W9H6xJ5Uhjy2NeUfxvcf3N49erpm4EAAAAOBn014ryPunS0y2xV5OLh4Oa4F4Rz9KPFyRYjr1vqF918RW/6F9Yk+KZ7tk1y3RjvEjR/N2tir2uJystVOKv1UbDabnHhhYqwzyzHbZgW8nxm24lV/Tvl5uXPJv5E1rVS8/Ll3lPRhPy7fFfYM41qkM94c5Tj08hERfp4UvprGB9LK8a70eQbKVOos8oe/SfgAAfXzHMRwAAAAAAAAA4A3h8PARfMZPRZ7+tgY4BIeH0LLVM2xJ+wEA9PEdx3AAAAAAAAAAgDeEw8PTWD6yOvRbdfC1vOumIpulA2xfWeB/x+gafq9okf+od7Cj67tfeu5P+wEAdPINx3AAAAAAAAAAgDeEw8PTyDa0wsYVxwDfDg4PISB8N3Xst4/4bugmtB8AwADfbAwHAAAAAAAAAHhDODwEAAAAAAAAAAAAAAAAgACHhwAAAAAAAAAAAAAAAAAQ4PAQAAAAAAAAAAAAAAAAAAIcHgIAAAAAAAAAAAAAAABAgMNDAAAAAAAAAAAAAAAAAAhweAgAAAAAAAAAAAAAAAAAAQ4PAQAAAAAAAAAAAAAAACDA4SEAAAAAAAAAAAAAAAAABDg8BAAAAAAAAAAAAAAAAIAAh4cAAAAAAAAAAAAAAAAAEODwEAAAAAAAAAAAAAAAAAACpx4e3j6v98vHr/uvX/36+Ljcr7eYAAAAAMBbcnP/wRjYDH4q+D4AAAAAAAA8l/MODz8v91+/Pu6Xz7Gl7i0+d/wA8Xb/vF7uH9XhZTicVMv0eb9k99baP3u7X2P6H60C3673j5DOxeWiMZo/AADA63O7fsS5zpgjQ3zg7rlUd2ivf2fWmOCMeOeH8Co2S+X8uD7xsGcmBn5XUqxu+c3Z8bzBjH+c5fsPHytvYR2H3/Ww+ZzaHGu7W36Z1o4PHBcPj2nG+vbj4/7hDPAtveNwvRM9YxAAwE9nIBaryebL8RBnm6PsfFP5JuO/B7J8aCetpWNdRmOvQzb09LffKeXNGE1v23dQdPoa7rhtPm8zJcK3Ay/s2zuG6tJf7hlOOjyMhZxrGbe2nX82kBl0aayP++XiFifRcEHigJAtbtwz/rlV6XUnv8hJrANPY4BZ7zPrNZ7/a+PqG+r3/QYpAAD4KrK5z0md4t7q8DDW+cvnvxeed59mMwnDjikGPX3h2cl0DPyupIWTvXF/bjxvMOMfZ/n+Q8fKbYG62NH7nFP62+lr1i+vM8Y1fSm1l3XPV4w3h/OI/hvSiH4RtdbvG25YnWfbvjEIAODH4uOcLIYY2+gu44/xUCObo8xxOuXzvearNZaI5d/FXl22PGjDgfb7dGuSdN8WE2TPDmY+k144byjur3Q5MaYasE3Rlq4cl0v5hrzxAyB8e6vbokf69jnltRioy6ExtY+TDg8XJ50tYDD6bKCebZp8XIV3Mnojxuv7hVi6Jnes5VOR1fU1v57O2HLWifxfmlTf77/ABwCABxHntg8fIPs5QZsotY1v7XUQYN7t4na7f5rvEDTs+BWb+RqHYuB3JcXgjdj51Hje4Jn+8cCxclswuz5RVcy/Czf55ePd7oXGuNQeii+sm1tGfVa7P9Kwh302tYnUt7KNkO82Jp3WVzvHIACAn4aLS6/54U/UyD5yuWE/E2dksbGXmkAay79RfJHHrlXwtcVe7bln2oaj7ZfiHiFWzNco3flPprfEVw9ux1HbWOsQ65oJvv1lvn1SeS266jJa7gN8n8PDKcfdFiBm3mrnS51La1Qp/e01vS+m/Fp1msn/lUn1/UaDFAAAfClLAO/nvUbgqm18P3BD/P1g3m2xvoPV3DA27Jhivi8/HDoaA78ryS6t+p4Zzxs8zT8cDxwr00GX5nvrgvfh4/QrjXHWui/6o/OTz2g7yXTJ7g8162GfterpSH75jD5hcVpf7R2DAAB+ElvcFcbHz1szltiRjdPX6flwm6PSp7zkNFJ5v098kWIrzV5d9py24Xj7tWIWuT4+Xbmes+k9vh0nfLsRo7fqKoNvf5Vvz5VX9+0dXXWZ8LsDvPbhYTJox7O+kfzHSEuDNxY3Dsn4yVG0jt66vjGXf2L5ft3l+iJXP/Gd59FOoTzOoVz5FrvFZ5yTqfh3cDi7bXm4svivBpIeqfPJOkaqx05NGwEAwPsQ5724OZfmS3EqOOPwcGb+M+aygpH5cZ3v5Xilez6PLPfnebt6Xa5F3l3zrvBuNb0OFWY7pGBWiG+681Rsltpn9aH4CdaUlvrVM0tbFvcGG/pg29laqXPTjtPlcfcOtntBync2Bn6En8/4xCH71fd62xm+V3Eknh+OwYfq1zNe5G2y7/+Bxlh5xP+s9cmCawnXqZar2+JWLorQZh3jRO/aYq6t/Hwh+Ve81ftelqblpzmpzDs75P0xttvetoZfjPTTVt+vfHYj5d/ajEn3KX1Q88tWuSKjfrv/XU7fX9p9dUOv99QY1NlWqq9k5dn7SJV3VaeR8RUA4Fz8vOpjlW3UaccSOeX4po+RLdIY6sfdOEaK8VbKT7rm6BrLG/NB83pJq87tfegjNjzafntSeYvn1zZx2s3HNmJ6qc6DaY0xYRstForM+Te+/VW+PVXebt/urcv5fdLipQ8P2w7UInWulsNXDdXVEXscdTJ/x1p396z/buSgeO/OEVN5XYdfTq3TMykNpe3SgOavr3lk+db1y/LZyuIXdG4Z5RYr4Td44rNrepM+AwAAL0icV9Y5J80b0oSpBdWNYLtgZv4z5rKV0flxne/3ccPQfO7Y7s/zjve7NDbT+mvGvJvqGdO5uuAzv782yw6zHcqgd2UoT8VmQvukuqW092VyacXy+E1mH2RvBwN2XbvtmJfH/3t9xkmw0Wi71xyOgR/h50d8Yqg9fVb7flCm0+HDqz+OxfOzMfhav6Z/9IwXeZvEdOo6G+1xmv/5MrZudqT7xfXGaqOY79ouSx21caJnbXG4rcIzW1v5rwdeD7VCO9p+WrOWp743ttXycmx/tXzV66P9VKhn0ffFfM5a3xrptMrlGPXb9X6X5tW3XX7wWBdgsN5TY9BAW6l9JpXTa2fEyncEmxZlFdMAAPgaRja66zGxtXmvU8ZYehnS+C/EiGeM5R5x3pnHzMtxng0XDh1UrHPZ3r7am4dM1PSUmOrBtG2TxUp1ID3tF/h2uv5U33Zo5e3x7SN1OVpui5c+PDxumKzD7pLwG0tLo+0d3lpAlR3WZjJ/oyOKNlkHUidXYDEtbZCVyqY9k+fjyrbfTBixDQAAvBvLHJXPKx3Baz3Raq9LzMx/3XPZwPy4PqPkNTyf7/NOgWZpF33e1YLaZN9mbGW2Q2rXspxjeTZs5rWzm9w2rXzbvqTb0SyP1l6j7S5wOAauyn2Kn0/4hGk/rQx5/sUDLnaOdhHLvWMinh9tO6t+67W6rI28hbqJ/V9rj9E6iGy2C/f7wxnXGOpTRp6pnCnPU8YJz2g9V/s6OZsVz+TXXF1LvzP6So1SpqU8qQ7yvCjbxch7LbPmR06uHLu+L5Sx3y88qUzu/rTx5LR80tu/Xh4IrkyUKyGXT/ONxljUU++1rLUvWGPQYFsp9V384MPZs7rfU/eRNd19OmZ5AAC+gO65RYhn0rP7+K1FPTdoY6E8F+v3OwbGco8a70yhzG2JU2240N1+geWNm+ENWaGc7jlnk91c301verG9fFznbLDOiV7+DUrzBTDpso3zjeLNUiFWSn87HxouGr6d+FrfrmmU1+JgXY6V24bDQ98wXq6z+kVNUnjNp618nUfqDHmjBoTG1pnLP+UtZiF1YKNTeyRnVOsXER24kc9W3/G2BgCAVyfOAdUcoc5p2nw6Ms9OzH+tZ6bmR2X+G53P0/39cY8+746nVWG2gxw0j+WplN1sHznfpU2kAF72yT26HWfKM9ruEsnPptvvEX4+4RNH7CfXXclHQa2nUpfhtpuon+Zvdr0FzqqDyrJxE+7PFQ8Sa7R+WL8+Vs/2GHdOWxljwNqOSl4FKZ3cDvH5LF+p7JL90n1D/bTVxtX1Vh57Uh11ievrRrmG29Ogxy5WvdO1kTFovK1SOqXPhft8GUP/lvNY0zDtoo0/AABfQxr37Plenn/FcbwLIb0ULxVjpTwGz4/l+7F2ufecMdgu19k2XOhrv0SywyYfCxw5POxKL82D6Z6P6pDOa9YABn22cXXIvsVg04erS/Umti7w7cTX+nZJy446x+typNwt3uLwUDLi2mC1ik6TGkeT8s5IzzoIHXHSufyXPPw1//UrtYRFQmNBlWyVt1+zHtKGRCOfrb7jbQ0AAC9OnDd2sUKaO+oJR5pnPNrrEhPzX+uZqflRmf9G5/OxGMNjzLupnC7/sECRKmthtoOymBjKUyn7RPskO+9DqpiHGrckDDua5dkWtlJ5uuM4AcsXumLgR/j5jE9Mt6dWNn0hK5LyF/vmPo/l9bNicNk/XC7GeGG0SY3SHsN16OAWfqOwfkd31V9ieco5QOiDZ4wTjnPbyhgDHCNts7s35ivNQ9trkz4h+YBZT0d+PT2v3SuSyir1Qf/JvDQ+VbZslOtMvxXtNlBv2+7yGDTTVvtnFtsGv9j5SMo3s2uXTY0yAQA8kDQGlXFBiTZOzY9f0nwqxWPCmOpo5iuM5eJ6M5Wjc96yWOP+Ou6KnG/DhfS81X4yt+xTgJ3xuomVnos7QpwgfDuG/22/8My8DTTattny9l+Jv921/OTXUhe5PXXw7cSzfLtVXosz6jJb7h7e9pOHocPln+Zz9y2NmDtw6lzCgJUNJHK9pE4odVaLmfy3fG1lZWgsHJwhl2fWiqQ8jIFcGDia+QzbBwAA3oU0Z/u5pZifndLrxZwjzTMe7XWJ4fnPYT4zOT+K89/ofN6R9w573t0WWkmuPVy5uw4SzXbQy9qfp1L2ic1QeWHjMOuQY9ixy1/y8oy2u8zhGPgRfj7jE8Pt2SpbR9kLtvbY8tDae7vXVvbcsH94rPGit14OsT0m6jDIzdVZ/l25WK/cFrGMtR8fHidm6mm2lTEGOKRxR6WqcxqfRB9IZUllE9tysJ82+tx6fdWAzwWSrfTnxPHLLNes38ZPx65xRqnSnL31btlduj7ZVnX/iGVcbolprvaKdh9o6yG/BQA4GSuWDUjjYkQev9L8U6m4SZnP1zkgvZ7G7fy+ybFcGovr8b2r7HuahxXDNuyn2X4tUtm0eGSUmfQM+xyhZZtx38e3dxht9wzfbpbX4qS6zJS7l5c+PFwbp8+Kwr3JiZUOkp5RBp9d/kaDy8zk39GpaxoLh325Txw4CpTBDAAA3hwlaKxUxBHanDoy1w7Pfw7zmcn5UZz/Rufzifm/c95dPjWUHTL15GG2Q7us7TyVsjfaVA6wU3m8j8VPqqzv6uyxp2HHLn/JyzPTjnsOx8CP8PMZnxhuz1bZxu3bH89PtN2wf3jOGC8cYj0m0pkh1bvqM0t7bnnXf9dMjxOnt5U9lsrjjkKVz/LsPt389eSj5Vq7o47Dfd+RXb/Gesl9WiPZ6sxyzfhtKoezm/8qM/+pg9vyyQOxvbrr3SqLdH2yrVIdok0WP9h8pfCd+HzhI422HvJbAICTSWOQvI9cjn818vjlnsnfPJckjavCvFvGg2nczu+bHcv3zy3lz9PpKXtO9kl+xUZrXR80B9jt14PeFnNMpNeKiSbp8m2znPU97u+mf+jp4ttjjPl2T3ktzqvLWLnHeOnDw7WjdzwrGzF1Lq2DNK5XA824g87lP5xPY0AsB5KFZh7Diz5Pqs9EWwMAwOsibWrlSPOHGKA6tNclJua/1jNT86My/43O5/NxRv+8u9pEncsjZjt0LEAy5DyVsk+1Twrq3UIlpLmo/7c2DDua5Ul2KMsz3o4CKd+Otk35Ff3vEX4+4xMT5bDLNuZ7gaoMVvpNu9RM+IfL5ZTxwj0Q7q/bYzidmnCgd7lfpN+tW0l1qNohlmnxxVh/pe1rhsYJx7ltZYwBjrG8Urv7tGK6Qp6pvj7NJf29TzfzlXyg0efK65uP9q/zlbbPmSjXaHum+6Vyi2kN1NsuS3q2rP9UWzmW5xa/C//O7ROf8Y8s/lLZ/GSbAgCcSRqDpHF2nfPduLY7dHBarm3X1Z+b2mHN5/n8lc/VG7NjeT6nr/koY3ObbY7y+WhpPM6GC1b7bbaU46aFnnsSM+nJ83FBKyaa5Gttk7CeSdfw7R7s9svpK6/FmXXpL/c43+fwcMq5toay8847SnwpoL2+YRs/H4xSWjOdeyz/5FxancO7KvNLEwuH1YGrgSEhPdPKZ6vviI0AAODVEeeMgnw+jS8pAar6usTMxlnjman5UZn/Rudz8/5U7iJjY96tY4WVzrnatJPQnp6hPJVyTLTp8lqjPiaWHXvsUJZnOI4TORgDP8LPp3xivD1t+yn5mOTP2P4/3HYT/qH523D/byzy5/1P8akCzY7xdW+PWOZdOdT8pTS1fCbqabaVno9HHvd1UtkuV8UGnrVNr5vN4qVESue8furYXU917+1T7ftTuYpyN8o11p72ONBnF70edlnkvKfayrH6yudSniLPWGb/ifqQZ227hk1H/RYA4EzSGCSNpeuY2Sltbthjz+euUEuaH5f4FezlfbNj+Toe+wsxj/4y57jyx9hR/+TWwuNsuGC1n8vdnIcDjTmqZC49u4yZjU6eCPtsY8y/Q7ZJ4NuazvXtRH95Lc6sS1+55zjp8DA6/6TBQgVnjZ0cNRhIOOn1mwCxQfd5pM6lD0CtDpSuryfCQ/WYzH+t8/45+37BidZr9QBjlE17Jr2uDnAdAz4AALwX6jxTsgt21gC3mlO01yVm5r/mXDYxP67PKHkNz+f7++VgUZt3jfm4Wf+IWtdtQVSmP5pnw2ZK+ZIdcrMtr132+XYza6/NFkV4uNpun14r7ixY0/HtPhgDN+y42d+os+rPvT7haJRDas8in+Kh7GtjpHIbdMfza96dbWfWT/GPlu8LeYv9XxsrR+sgkPILv+uxq5hvh3R9X+/l2sf9Ej8NXJZhtK913N9bT7OtlDaJiH5qkdomSn4u5Rkl3nSgn4r1dEjX1/LK9S8xyuTwv2cp1ru3XJ3tqbXJ7TOl05G/Vu+1LLX/W2PQRFt54rU0NpX1if7vroV79obZ1ylj2G8BAE4kjUG7sauD+fHLns89Ke1F9X2TY7ljSdd/c4PyfIv1DW5zNqs5Oge02m+dm709draKb3rZPb/No3W6U+mt87jVXufPg0dtsx5KKc/L4NuJR/v2XHl137YYqUuz3Ac46fDQETqlWwjuV5AmywJiwrlysk4fDOUD6KDtNTloNjpHIg02zYXMojHnnM9/G2xcPcNXB3ltrxXppTLGhYW/Hu6PixAv0bnWgdZdT3msz/i2jvcl1nwUWznWcvt3O/j0DjU8AAB8d9ZxvzVB7ua7LCgr5gvtdYGZ+a9jLhueH9cy7wPuofncI+S9xjtCmdV5d03H53u9Xz/domv9HcCxANUrlCXZwH9SJpSpKv9QnorNGu0jB9j5hm4pHy/62FVKK0e1o1ke7XAoS6+33TVS/lHdMfBD/HzCJ6baM89ns9+Sjs9zeb3bhp7KjlLdEkNtN+Uf+nghtYne//Wx8rj/ubQLH0t+l9Lwr8kbDHkdRLsMjk1q33Sc11ZGmzg0P9XZ2kZL05P3JzXt0X7a6vvK9c3OynMrWd0yvwhKrzvt3qXdKpdjqD0zP7qE37r1Y5C/1z+zlKEowmC9p8ag0bYKbOOE5CumjzRsOu63AABH8LHDNieksSuMo/E1c12XMT9+2fN5II2d2n1TY7kje649l1YUZXL5RnvJMuqWMW7D0fbL5y+n9dn8tcoOeT13NppIz7HFDvIz5xy0nGAbF880128m+Hbiob49W17Tt3Xsuoz63TznHR46/Dv5ioVkh7wxz6nL7f7pF5ZV/iF99UAzdS5rkdy6xw7obY7lv9g7dxDfwYXf70lOGhzUlXddZPnX/ACgZu4z2efhO4D0SJGPRrWB19+bAQDg5djmyPZwL8x3bl5Z44o8Ae31mpn5r2suc4zMj2vd5Dihez6P7O93waGzg3y7Me8qddDjpprKpq4cS4Ca2l2Ib7rzVGzWaB8xwHYLGv9MOCQMX223abWN5UcBxY5meWz/H213nYkY+CF+7hn0iZn2jNyyA6W8DyzPWLG1xNZWPfH8XAxeo/nH6Hhh9H+XvzZWHvc/14d836rSCGOr9EnYla3e6obN0Nhkry3OaSu7TcY3KTJ/s/rguhnT8MmRftrq+8b1VE97vEy2kqW2Y6tckRG/Df653rf1k7SRWFRjot5TY9DwmJrlL9nG8pGGTcf9FgDgCPb84NV7kDM/ftnzeWI7cFLumxjL8/oPH1il8bxLdt0S4zacaz9x3nZ/a/vQKabTbDSanuc2FFfOcKZtZsuVyoBvP9S3D5S35dsSdl3m/G6GUw8P4ZvSWDgAAAC8Jd9m/usL5uEBJB9QVw+0DcDXQp8DAAAAAAB4BTg8/AlweAgAAD+R7zL/MQ8/j5btaRuAryV9Umr84wIAAAAAAADwhXB4+BNgYwwAAH4iz57/bp/362X7WrOzvjYCRsi/HvByv4bfvlrkv15zaRv/VTfxdgB4AMtX6079ricAAAAAAAA8BQ4PfwIcHgIAwE/k6YeHMX8n/TcJ4fHIvwm4/EbVzG8MAsAY+W9K2r9LAwAAAAAAAN8DDg8BAAAAAAAAAAAAAAAAIMDhIQAAAAAAAAAAAAAAAAAEODwEAAAAAAAAAAAAAAAAgACHhwAAAAAAAAAAAAAAAAAQ4PAQAAAAAAAAAAAAAAAAAAIcHgIAAAAAAAAAAAAAAABAgMNDAAAAAAAAAAAAAAAAAAhweAgAAAAAAAAAAAAAAAAAAQ4PAQAAAAAAAAAAAAAAACDA4SEAAAAAAAAAAAAAAAAABDg8BAAAAAAAAAAAAAAAAIAAh4cAAAAAAAAAAAAAAAAAEODwEAAAAAAAAAAAAAAAAAACHB4CAAAAAAAAAAAAAAAAQIDDQwAAAAAAAAAAAAAAAAAIcHgIAAAAAAAAAAAAAAAAAAEODwEAAAAAAAAAAAAAAAAgwOEhAAAAAAAAAAAAAAAAAAQ4PAQAAAAAAAAAAAAAAACAAIeHAAAAAAAAAAAAAAAAABDg8BAAAAAAAAAAAAAAAAAAHPf7/wFVzCj8MR2v5AAAAABJRU5ErkJggg==;" vertex="1" parent="1">
                    <mxGeometry x="48" y="4133" width="1120" height="103.51" as="geometry"/>
                </mxCell>
                <mxCell id="24" value="&lt;font style=&quot;font-size: 10px;&quot;&gt;JS&lt;/font&gt;" style="rounded=1;whiteSpace=wrap;html=1;arcSize=50;strokeColor=none;strokeWidth=1;fillColor=#006600;fontColor=#FFFFFF;whiteSpace=wrap;align=left;verticalAlign=middle;spacingLeft=0;fontStyle=1;fontSize=10;spacing=10;" vertex="1" parent="1">
                    <mxGeometry x="809" y="4190" width="33" height="17" as="geometry"/>
                </mxCell>
                <mxCell id="25" value="&lt;font style=&quot;font-size: 10px;&quot;&gt;DG&lt;/font&gt;" style="rounded=1;whiteSpace=wrap;html=1;arcSize=50;strokeColor=none;strokeWidth=1;fillColor=#4C0099;fontColor=#FFFFFF;whiteSpace=wrap;align=left;verticalAlign=middle;spacingLeft=0;fontStyle=1;fontSize=10;spacing=10;" vertex="1" parent="1">
                    <mxGeometry x="808" y="4169" width="33" height="17" as="geometry"/>
                </mxCell>
                <mxCell id="26" value="&lt;font style=&quot;font-size: 10px;&quot;&gt;DG&lt;/font&gt;" style="rounded=1;whiteSpace=wrap;html=1;arcSize=50;strokeColor=none;strokeWidth=1;fillColor=#4C0099;fontColor=#FFFFFF;whiteSpace=wrap;align=left;verticalAlign=middle;spacingLeft=0;fontStyle=1;fontSize=10;spacing=10;" vertex="1" parent="1">
                    <mxGeometry x="846" y="4211" width="33" height="17" as="geometry"/>
                </mxCell>
                <mxCell id="27" value="&lt;font style=&quot;font-size: 10px;&quot;&gt;LM&lt;/font&gt;" style="rounded=1;whiteSpace=wrap;html=1;arcSize=50;strokeColor=none;strokeWidth=1;fillColor=#4D4D4D;fontColor=#FFFFFF;whiteSpace=wrap;align=left;verticalAlign=middle;spacingLeft=0;fontStyle=1;fontSize=10;spacing=10;" vertex="1" parent="1">
                    <mxGeometry x="809" y="4210" width="33" height="17" as="geometry"/>
                </mxCell>
                <mxCell id="28" value="Action" style="html=1;shadow=0;dashed=0;shape=mxgraph.bootstrap.rrect;rSize=5;strokeColor=none;strokeWidth=1;fillColor=#6C767D;fontColor=#ffffff;whiteSpace=wrap;align=left;verticalAlign=middle;fontStyle=0;fontSize=12;spacingLeft=10;spacingRight=20;" vertex="1" parent="1">
                    <mxGeometry x="75" y="4115" width="118.71" height="25" as="geometry"/>
                </mxCell>
                <mxCell id="29" value="" style="shape=triangle;direction=south;fillColor=#ffffff;strokeColor=none;perimeter=none;" vertex="1" parent="28">
                    <mxGeometry x="1" y="0.5" width="10" height="5" relative="1" as="geometry">
                        <mxPoint x="-17" y="-2.5" as="offset"/>
                    </mxGeometry>
                </mxCell>
            </root>
        </mxGraphModel>
    </diagram>
</mxfile>